<svg xmlns="http://www.w3.org/2000/svg" width="24" height="24"><path fill-rule="evenodd" d="M5.203 6h15.02a1.5 1.5 0 0 1 1.457 1.859l-1.492 6.053A1.5 1.5 0 0 1 18.746 15H7.176l.071.323c.091.453.335.677.753.677h8a2 2 0 1 1-1.732 1h-2.536a2 2 0 1 1-3.465 0H8c-.92 0-1.552-.582-1.731-1.47L4.035 5.34c-.039-.19-.242-.343-.495-.34H1.5a.5.5 0 1 1 0-1h2.035c.713-.007 1.343.466 1.478 1.134l.19.866zm.22 1l1.534 7.002A.507.507 0 0 1 7 14h11.746a.496.496 0 0 0 .476-.346l1.487-6.034a.5.5 0 0 0-.485-.62H5.422zM11 18a1 1 0 1 0-2 0 1 1 0 0 0 2 0zm6 0a1 1 0 1 0-2 0 1 1 0 0 0 2 0z"/></svg>