<svg xmlns="http://www.w3.org/2000/svg" width="24" height="24"><path fill-rule="evenodd" d="M21 10.5a.5.5 0 0 1-.5.5H14V8h6.5a.5.5 0 0 1 .5.5v2zM19.5 20l-5.5-.001V12h6v7.5a.5.5 0 0 1-.5.5zM4 19.497V12h6v7.998l-5.5-.001a.501.501 0 0 1-.5-.5zM3 8.5a.5.5 0 0 1 .5-.5H10v3H3.5a.5.5 0 0 1-.5-.5v-2zm4.356-2.029a1.489 1.489 0 0 1-.335-1.226C7.137 4.535 7.818 4 8.607 4A2.396 2.396 0 0 1 11 6.393V7H8.5c-.44 0-.857-.193-1.144-.529zM12 8h1v11.999l-2-.001V8h1zm1-1.607A2.396 2.396 0 0 1 15.393 4c.789 0 1.47.535 1.586 1.245A1.504 1.504 0 0 1 15.5 7H13v-.607zM20.5 7h-3.015a2.505 2.505 0 0 0 .481-1.917C17.772 3.896 16.666 3 15.393 3A3.396 3.396 0 0 0 12 6.393 3.396 3.396 0 0 0 8.607 3c-1.273 0-2.379.896-2.573 2.083-.112.686.07 1.373.481 1.917H3.5C2.673 7 2 7.673 2 8.5v2c0 .651.419 1.201 1 1.408v7.589c0 .826.673 1.499 1.5 1.5l15 .003c.827 0 1.5-.673 1.5-1.5v-7.592c.581-.207 1-.757 1-1.408v-2c0-.827-.673-1.5-1.5-1.5z"/></svg>