<svg xmlns="http://www.w3.org/2000/svg" width="24" height="24"><path fill="#0E0000" fill-rule="evenodd" d="M6.519 12H6.5A3.512 3.512 0 0 0 3 15.5v4a.5.5 0 1 1-1 0v-4a4.513 4.513 0 0 1 2.585-4.07 3.5 3.5 0 0 1 2.802-6.316.5.5 0 0 1-.251.968A2.505 2.505 0 0 0 6.5 6a2.5 2.5 0 1 0 .833 4.857.5.5 0 1 1 .334.943c-.365.13-.753.198-1.148.2zm3.434-.563a4 4 0 1 1 4.095 0A5.001 5.001 0 0 1 17 16v3.5a.5.5 0 1 1-1 0V16a4 4 0 0 0-8 0v3.5a.5.5 0 1 1-1 0V16a5.001 5.001 0 0 1 2.953-4.563zM17.48 12a3.487 3.487 0 0 1-1.148-.2.5.5 0 1 1 .334-.943 2.5 2.5 0 1 0 .197-4.776.5.5 0 1 1-.25-.967A3.505 3.505 0 0 1 17.5 5a3.5 3.5 0 0 1 1.915 6.43A4.513 4.513 0 0 1 22 15.5v4a.5.5 0 1 1-1 0v-4a3.512 3.512 0 0 0-3.519-3.5zM15 8a3 3 0 1 0-6 0 3 3 0 0 0 6 0z"/></svg>