<svg xmlns="http://www.w3.org/2000/svg" width="24" height="24" viewBox="0 0 24 24">
    <path fill="#fff" fill-rule="evenodd" d="M17.81 15v-4.5a5.988 5.988 0 0 0-4.614-5.833.5.5 0 0 1-.386-.487V4c0-.554-.446-1-1-1s-1 .446-1 1v.18a.5.5 0 0 1-.387.487A5.989 5.989 0 0 0 5.81 10.5V15c0 1.457-.447 2.84-1.255 4h14.51a6.967 6.967 0 0 1-1.255-4zm-3.5 5c0 1.376-1.124 2.5-2.5 2.5a2.506 2.506 0 0 1-2.5-2.5H3.5a.5.5 0 0 1-.36-.846A5.982 5.982 0 0 0 4.81 15v-4.5a6.991 6.991 0 0 1 5.01-6.708A1.998 1.998 0 0 1 11.81 2c1.036 0 1.885.784 1.989 1.792a6.99 6.99 0 0 1 5.01 6.708V15c0 1.57.605 3.039 1.672 4.154a.5.5 0 0 1-.361.846h-5.81zm-1 0h-3c0 .824.676 1.5 1.5 1.5s1.5-.676 1.5-1.5z"/>
</svg>
